<?xml version="1.0" encoding="utf-8"?>
<!-- Generator: Adobe Illustrator 26.5.0, SVG Export Plug-In . SVG Version: 6.00 Build 0)  -->
<svg version="1.1" id="Layer_10" xmlns="http://www.w3.org/2000/svg" xmlns:xlink="http://www.w3.org/1999/xlink" x="0px" y="0px"
	 viewBox="0 0 1251.3 257.1" style="enable-background:new 0 0 1251.3 257.1;" xml:space="preserve">
<style type="text/css">
	.st0{display:none;}
	.st1{display:inline;}
	.st2{fill:#ACACAC;}
	.st3{fill:url(#SVGID_1_);}
	.st4{fill:url(#SVGID_00000039836048524215959600000009956965693341738164_);}
</style>
<g id="Layer_4">
</g>
<g id="Layer_9">
</g>
<g id="Layer_6">
	<g id="over">
	</g>
	<g id="guides">
	</g>
	<g id="under">
		<g id="Layer_5">
			<g class="st0">
				
					<image style="display:inline;overflow:visible;" width="67" height="76" xlink:href="72FCE083AD38AD0F.png"  transform="matrix(1 0 0 1 132.9489 153.5792)">
				</image>
				<g class="st1">
					<line class="st2" x1="176.6" y1="211.4" x2="146.5" y2="172.3"/>
				</g>
			</g>
		</g>
	</g>
	<g id="base">
	</g>
</g>
<g id="Layer_8">
	<g>
		<path class="st2" d="M390.4,184.7c0,38.4-30.8,69.6-69.6,69.9h-0.4H219.7V4.4L305,4c39.4,0.4,71,32.6,71,72.1
			c0,19-7.2,36.2-19,48.8C377.1,137.4,390.4,159.6,390.4,184.7z M254.1,37.4v77.5h50.2c21.2,0,38.4-17.6,38.4-38.7
			c0-21.5-17.2-38.7-38.4-38.7H254.1z M357.7,184.7c0-20.8-16.9-36.6-37.3-36.6h-66.3v73.2h67.1v1.8v-1.8
			C342,221.3,357.7,205.5,357.7,184.7z"/>
		<path class="st2" d="M584.3,254.3l-38.7,0.4l-0.4-0.7l-42.3-82.1c-3.2,0.4-6.5,0.7-10,0.7l-0.7,0.4h-37.7V255h-33.7l0.4-251h55.9
			h15.8C538.4,5.4,575,43.1,575,88.3c0,28.3-14,54.5-37.7,70.3L584.3,254.3z M541.3,88.3c0-27.6-22.9-50.2-50.6-50.2h-36.2v100.8
			h36.2C518.3,138.8,541.3,116.3,541.3,88.3z"/>
		<path class="st2" d="M657.3,215.6L639.7,255h-38L710.3,2.9l109,252.1h-39.1l-16.9-39.4H657.3z M710.3,95.5l-38,87.5h76L710.3,95.5
			z"/>
		<path class="st2" d="M1025.1,4v251h-39.4L875.6,65.3V255h-33.7V4h39.8l110.4,194.4V4H1025.1z"/>
		<path class="st2" d="M1127.6,255h-67.1V4.4l67.1,0.4c68.5,1.1,123.7,57.4,123.7,124.8C1251.3,198,1196.1,255,1127.6,255z
			 M1125.8,219.2c49.8,0,89.6-39.8,89.6-89.6c0-48.8-39.8-89.6-89.6-89.6h-30.1v179.3H1125.8z"/>
	</g>
</g>
<g>
	<g>
		<polygon class="st2" points="172.3,211.9 126.1,144.4 172.5,115.3 		"/>
	</g>
</g>
<g>
	<g>
		
			<linearGradient id="SVGID_1_" gradientUnits="userSpaceOnUse" x1="192.6424" y1="209.9601" x2="246.2829" y2="171.0069" gradientTransform="matrix(1.207 -1.006541e-03 8.942392e-04 1.0723 -166.375 -15.4969)">
			<stop  offset="0" style="stop-color:#ACACAC"/>
			<stop  offset="1" style="stop-color:#171717"/>
		</linearGradient>
		<path class="st3" d="M35.3,151.9c-13.7,10.6-23.5,31.9-23.5,49.3c0,23.5,12.4,40.5,35,50.1c16.3,6.9,21.1,5.7,36,5.6l31.1-0.7
			L35.3,151.9z"/>
	</g>
</g>
<g>
	<path class="st2" d="M191.5,256.2L48.6,66.2c-0.1-0.3-2.9-3.7-2.9-7.2c0-7.4,6-13.4,13.4-13.4c7.4,0,13.4,6,13.4,13.4
		c0,4.2-2,8-5.1,10.5l27.3,36.7c14.3-10.8,23.5-27.9,23.5-47.1C118.2,26.5,91.7,0,59.1,0S0,26.5,0,59.1c0,15.5,8.9,30.5,15.7,40.1
		l118.1,157H191.5z"/>
	<g>
		
			<radialGradient id="SVGID_00000116216121433855307480000012046046734823539897_" cx="57.8939" cy="26.6183" r="77.1793" gradientTransform="matrix(-0.9957 -9.236114e-02 0.1728 -1.8631 110.9401 81.559)" gradientUnits="userSpaceOnUse">
			<stop  offset="0.187" style="stop-color:#ACACAC"/>
			<stop  offset="1" style="stop-color:#171717"/>
		</radialGradient>
		<path style="fill:url(#SVGID_00000116216121433855307480000012046046734823539897_);" d="M48.5,0.9c0,0-30.3,25-0.6,64.8
			c-6.4-10.6,0.7-18.3,9.5-20C55.3,37.1,64,8.6,62.4,0.1C56.1-0.3,48.5,0.9,48.5,0.9z"/>
	</g>
</g>
</svg>
